<svg width="127" height="28" viewBox="0 0 127 28" fill="none" xmlns="http://www.w3.org/2000/svg">
<path fill-rule="evenodd" clip-rule="evenodd" d="M126.391 21.5633C121.135 29.4606 112.812 27.1691 110.312 25.3749C109.248 26.0147 107.383 27.417 104.895 27.255C99.5976 26.9104 97.7005 20.2007 97.7005 20.2007C97.7386 20.2275 96.1224 20.6949 95.249 20.6866C95.2378 22.6542 93.3186 27.3546 88.1393 27.2945C82.3274 27.2273 81.1458 19.5531 81.1458 19.5531C81.1458 19.5531 80.5675 20.2649 78.3683 20.9739C78.4791 19.4622 78.3981 27.0644 71.4323 27.1761C65.9253 27.2646 64.4388 19.4348 64.4388 19.4348C64.4388 19.4348 63.4834 20.3143 61.632 20.6194C61.7496 19.0831 61.5583 27.2019 54.5916 27.1761C49.8836 27.1588 48.2748 22.353 48.3999 21.686C48.5596 20.8359 46.8088 27.2957 42.2356 27.195C40.3484 27.1459 38.9415 25.9349 38.0586 24.3204C36.8768 25.5189 35.1609 27.195 33.236 27.195C29.7807 27.195 28.2574 24.6337 28.5154 17.3179C28.5374 16.4502 28.4667 16.109 27.4935 15.9792C26.9093 15.8928 26.3111 15.7292 25.6781 15.643C25.4753 16.243 23.7546 26.9998 17.8377 27.204C15.8527 27.2725 14.7673 25.7485 13.8759 24.6174C12.5096 26.2194 10.7058 27.255 8.13632 27.255C3.78373 27.255 0.818176 24.1365 0.818176 20.2895C0.818176 16.4425 3.78373 13.3242 8.13632 13.3242C8.9059 13.3242 9.12194 13.422 9.825 13.6038C8.37913 1.93646 11.7937 0.113027 14.7807 0.113027C17.6484 0.113027 22.5475 6.01204 15.654 20.9751C17.1845 25.4381 20.4839 25.1857 22.0694 15.9982C22.3921 14.1307 21.5293 11.6105 22.8714 11.2588C25.3247 10.616 25.585 12.5446 26.7353 12.866C27.9516 13.2056 28.6615 13.1724 29.8291 13.3885C31.8244 13.7339 32.603 14.6838 32.3599 16.7996C32.068 19.4767 31.5573 23.3732 33.1143 23.8481C34.2371 24.1931 36.2871 22.1293 36.6469 21.0001C37.0065 19.871 37.0816 19.4845 37.1136 18.6563C37.1622 16.8861 37.2233 15.5886 37.5639 14.2499C37.7096 13.7319 37.8758 13.3888 38.5371 13.3654C39.0812 13.3531 40.0762 13.2079 40.5143 13.51C41.0981 13.8988 41.0251 14.2933 40.9581 15.3316C40.2791 30.1353 45.5051 22.7452 47.0633 16.8279C46.5084 10.1369 46.8894 0.235551 51.6202 0.0694879C54.0806 -0.0168743 55.1683 1.73006 55.288 3.03399C55.6264 6.71676 53.7308 12.8172 51.2378 16.9197C49.813 25.2907 57.4674 26.9459 58.6915 20.2642C56.6888 19.4202 54.5244 16.0044 56.2857 14.3397C57.274 13.4055 61.3877 14.7476 61.4551 17.6748C63.473 17.1965 63.7424 16.1867 63.7704 16.354C63.2157 9.66298 63.7301 0.235638 68.4613 0.0695734C70.9214 -0.0167888 72.009 1.73015 72.1286 3.03407C72.467 6.71683 70.5714 12.8173 68.0787 16.9199C66.6537 25.2907 74.3084 26.946 75.5321 20.2643C74.0494 20.0107 70.9194 16.3775 72.7254 14.3398C73.6905 13.2509 77.7892 15.5154 78.248 17.7717C80.1865 17.2855 80.4498 16.3078 80.4776 16.4724C79.9227 9.78156 80.4372 0.354218 85.1684 0.188154C87.6285 0.101792 88.716 1.84873 88.8357 3.15265C89.1741 6.83541 87.2785 12.936 84.7855 17.0385C83.3608 25.4095 91.0153 27.0644 92.2394 20.3827C90.2018 20.082 87.306 16.2458 89.6366 14.2833C90.5678 13.4992 94.1259 15.5346 94.9588 17.8568C96.116 17.8173 96.8363 17.4636 96.9907 17.4279C95.1433 9.57305 96.5186 0.148361 101.608 0.0696886C104.359 0.0272078 107.048 1.38773 105.868 8.8606C104.741 15.9906 100.691 18.9827 100.7 19.0285C100.936 19.8827 103.014 27.0312 108.248 23.2594C107.977 22.7157 107.706 22.1603 107.554 21.4874C106.687 17.5677 108.39 13.1404 113.021 12.4249C115.675 12.0149 118.174 13.1598 118.569 15.741C119.22 19.9645 114.917 23.0233 113.28 23.6868C112.547 23.3178 119.924 27.5107 124.302 19.108C124.555 18.6282 124.861 18.6689 125.258 18.9162C125.538 19.0908 127.133 20.4299 126.391 21.5633ZM11.3024 19.2517C11.0797 18.6615 10.6226 17.361 10.4609 16.7976C9.5707 16.1114 8.93527 16 7.79257 16C5.25314 16 3.75848 18.0809 3.75848 20.3247C3.75848 22.5684 5.3868 24.6496 7.92625 24.6496C10.127 24.6496 11.8019 23.3235 12.3129 21.4462C11.9553 20.7143 11.6004 20.0417 11.3024 19.2517ZM14.7185 3.20145C12.9341 3.20145 12.3288 6.97401 12.4463 10.1924C12.5502 13.0378 13.4473 15.5428 13.9127 16.6653C14.0308 16.8059 14.0089 16.7144 14.1144 16.8636C17.2126 10.8472 15.9275 3.20145 14.7185 3.20145ZM51.8751 3.31996C49.5689 3.08554 49.5838 11.6001 49.8701 13.51C51.0678 11.8118 53.1485 3.77721 51.8751 3.31996ZM68.7157 3.31996C66.4095 3.08554 66.4244 11.6001 66.7108 13.51C67.9084 11.8118 69.9892 3.77721 68.7157 3.31996ZM85.4229 3.43842C83.1166 3.204 83.1315 11.7186 83.4179 13.6287C84.6155 11.9303 86.6963 3.89564 85.4229 3.43842ZM101.863 2.82153C98.2694 3.46102 99.1061 14.0789 99.6519 15.9412C103.884 10.789 103.972 2.628 101.863 2.82153ZM115.329 16.0903C115.146 15.4133 114.233 15.0515 113.602 15.1407C111.798 15.359 110.048 17.3505 110.726 20.3824C110.876 21.0576 111.254 21.6792 111.247 21.6585C115.285 19.2577 115.628 17.3659 115.329 16.0903ZM39.2443 11.0218C38.7287 11.0219 38.2246 10.8864 37.7959 10.6326C37.3671 10.3787 37.0328 10.0179 36.8354 9.59571C36.638 9.17351 36.5863 8.7089 36.687 8.26067C36.7874 7.81243 37.0358 7.40069 37.4004 7.07751C37.7649 6.75433 38.2294 6.53425 38.7351 6.44507C39.2409 6.3559 39.7651 6.40164 40.2415 6.57654C40.718 6.75143 41.1251 7.04761 41.4115 7.42761C41.698 7.80761 41.8509 8.25437 41.8509 8.71137C41.8509 9.01476 41.7835 9.31519 41.6525 9.59549C41.5216 9.8758 41.3296 10.1305 41.0875 10.345C40.8454 10.5596 40.5581 10.7298 40.2419 10.8459C39.9256 10.962 39.5867 11.0218 39.2443 11.0218Z" fill="#0D0C22"/>
</svg>
