<svg width="130" height="48" viewBox="0 0 130 48" fill="none" xmlns="http://www.w3.org/2000/svg">
<g style="mix-blend-mode:luminosity" clip-path="url(#clip0_17_447)">
<path d="M14.7806 13.1062V22.1939H5.36373V13.1062H0.892944V34.7995H5.36373V26.0069H14.7806V34.7995H19.2514V13.1062H14.7806Z" fill="#33475B"/>
<path d="M33.5597 27.7867C33.5597 28.6561 33.17 29.4899 32.4764 30.1046C31.7827 30.7194 30.842 31.0647 29.861 31.0647C28.8801 31.0647 27.9393 30.7194 27.2457 30.1046C26.5521 29.4899 26.1624 28.6561 26.1624 27.7867V18.4951H21.9216V27.7867C21.9216 29.6511 22.7573 31.4392 24.2448 32.7575C25.7323 34.0759 27.7497 34.8165 29.8534 34.8165C31.957 34.8165 33.9745 34.0759 35.462 32.7575C36.9495 31.4392 37.7851 29.6511 37.7851 27.7867V18.4951H33.5597V27.7867Z" fill="#33475B"/>
<path d="M64.9811 19.4527C64.9811 17.5482 66.4027 16.9444 67.9601 16.9444C69.2153 16.9444 70.8735 17.7908 71.9578 18.8178L74.7353 15.9174C73.3487 14.2555 70.5361 13.1062 68.2339 13.1062C63.6339 13.1062 60.3066 15.4942 60.3066 19.4527C60.3066 26.797 70.4354 24.4673 70.4354 28.5773C70.4354 29.845 69.0466 30.9652 67.4563 30.9652C64.9482 30.9652 64.1355 29.878 62.9833 28.7287L59.9013 31.569C61.8728 33.7143 64.3042 34.8034 67.2175 34.8034C71.5876 34.8034 75.1033 32.3863 75.1033 28.6084C75.1033 20.4545 64.9745 22.988 64.9745 19.4527" fill="#33475B"/>
<path d="M127.642 31.3339C125.136 31.3339 124.424 30.3729 124.424 28.9013V22.3878H128.319V19.0874H124.424V14.7329L120.125 16.4432V29.7108C120.125 33.1044 122.766 34.8148 126.389 34.8148C126.958 34.824 127.525 34.7837 128.085 34.6944L129.134 31.2717C128.661 31.3008 128.118 31.33 127.642 31.33" fill="#33475B"/>
<path d="M49.7024 18.6046C47.6018 18.6046 46.1363 19.1443 44.7191 20.3771V13.2366H40.4717V26.4712C40.4717 31.4257 44.5132 34.8193 49.0541 34.8193C54.0922 34.8193 58.5235 31.3655 58.5235 26.7139C58.5235 22.1205 54.4448 18.6066 49.7024 18.6066V18.6046ZM49.6761 31.0316C48.723 31.0316 47.7913 30.7811 46.9988 30.3118C46.2063 29.8425 45.5887 29.1754 45.2239 28.395C44.8592 27.6145 44.7637 26.7558 44.9497 25.9272C45.1356 25.0987 45.5946 24.3377 46.2685 23.7404C46.9425 23.143 47.8012 22.7363 48.736 22.5715C49.6708 22.4067 50.6398 22.4912 51.5203 22.8145C52.4009 23.1378 53.1535 23.6852 53.6831 24.3876C54.2126 25.09 54.4952 25.9158 54.4952 26.7605C54.4952 27.8933 53.9875 28.9796 53.0838 29.7806C52.18 30.5816 50.9542 31.0316 49.6761 31.0316Z" fill="#33475B"/>
<path d="M95.8208 26.515C95.8208 21.8557 91.3982 18.4096 86.3513 18.4096C81.8104 18.4096 77.769 21.8032 77.769 26.7577V40.0001H82.0163V32.8499C83.4314 34.0807 84.899 34.6224 86.9975 34.6224C91.7399 34.6224 95.8186 31.1103 95.8186 26.515H95.8208ZM91.799 26.4684C91.799 27.3132 91.5164 28.139 90.9869 28.8413C90.4573 29.5437 89.7047 30.0912 88.8241 30.4144C87.9436 30.7377 86.9746 30.8223 86.0398 30.6575C85.105 30.4927 84.2463 30.0859 83.5724 29.4886C82.8984 28.8912 82.4394 28.1302 82.2535 27.3017C82.0675 26.4732 82.163 25.6144 82.5277 24.834C82.8925 24.0535 83.5101 23.3865 84.3026 22.9171C85.0951 22.4478 86.0268 22.1973 86.98 22.1973C88.2581 22.1973 89.4838 22.6473 90.3876 23.4483C91.2913 24.2493 91.799 25.3357 91.799 26.4684Z" fill="#33475B"/>
<path d="M109.499 18.3496V14.6066C110.057 14.3756 110.53 14.0088 110.862 13.5489C111.194 13.089 111.372 12.555 111.374 12.009V11.9216C111.372 11.1587 111.029 10.4276 110.42 9.88807C109.812 9.34858 108.987 9.04459 108.126 9.04254H108.027C107.166 9.04459 106.342 9.34858 105.733 9.88807C105.124 10.4276 104.781 11.1587 104.779 11.9216V12.009C104.782 12.555 104.959 13.089 105.291 13.5489C105.623 14.0088 106.096 14.3756 106.654 14.6066V18.3496C105.049 18.5671 103.538 19.1565 102.273 20.0581L90.6765 12.0614C90.759 11.7976 90.8032 11.5256 90.8079 11.2519C90.8088 10.6095 90.5947 9.98128 90.1927 9.44673C89.7907 8.91217 89.219 8.49527 88.5497 8.24873C87.8804 8.00219 87.1436 7.93708 86.4326 8.06166C85.7215 8.18623 85.0681 8.49487 84.555 8.94857C84.0418 9.40226 83.692 9.98063 83.5498 10.6105C83.4075 11.2404 83.4792 11.8936 83.7558 12.4873C84.0324 13.0811 84.5014 13.5889 85.1036 13.9464C85.7057 14.3039 86.414 14.4952 87.1388 14.496C87.7755 14.4939 88.4003 14.3432 88.9504 14.0591L100.352 21.9257C99.3249 23.2989 98.7891 24.9146 98.8145 26.5619C98.8399 28.2091 99.4253 29.8113 100.494 31.1591L97.0245 34.2343C96.746 34.1557 96.4559 34.1138 96.1636 34.11C95.5679 34.11 94.9856 34.2666 94.4903 34.5599C93.995 34.8532 93.6089 35.2701 93.381 35.7579C93.153 36.2457 93.0934 36.7824 93.2096 37.3002C93.3258 37.818 93.6127 38.2937 94.0339 38.667C94.4551 39.0403 94.9918 39.2946 95.576 39.3976C96.1603 39.5006 96.7659 39.4477 97.3162 39.2457C97.8666 39.0436 98.337 38.7015 98.6679 38.2625C98.9989 37.8235 99.1755 37.3074 99.1755 36.7794C99.1715 36.5204 99.1243 36.2633 99.0354 36.0165L102.468 32.9743C103.588 33.7328 104.89 34.2544 106.272 34.4993C107.655 34.7441 109.082 34.7058 110.446 34.3871C111.809 34.0685 113.072 33.478 114.139 32.6607C115.205 31.8434 116.047 30.8209 116.6 29.6713C117.152 28.5217 117.401 27.2754 117.328 26.0275C117.254 24.7796 116.86 23.5631 116.175 22.4709C115.49 21.3786 114.532 20.4395 113.375 19.7253C112.218 19.0111 110.893 18.5405 109.499 18.3496V18.3496ZM108.078 30.6621C107.138 30.6621 106.22 30.4152 105.439 29.9527C104.658 29.4902 104.05 28.8329 103.69 28.0638C103.331 27.2947 103.237 26.4484 103.42 25.632C103.603 24.8155 104.055 24.0655 104.72 23.4769C105.384 22.8883 106.23 22.4874 107.151 22.325C108.072 22.1626 109.027 22.2459 109.895 22.5645C110.763 22.8831 111.504 23.4225 112.026 24.1147C112.548 24.8069 112.827 25.6206 112.827 26.4531C112.827 27.5694 112.326 28.6399 111.436 29.4293C110.545 30.2186 109.337 30.6621 108.078 30.6621" fill="#FF7A59"/>
</g>
<defs>
<clipPath id="clip0_17_447">
<rect width="128.626" height="48" fill="white" transform="translate(0.892944)"/>
</clipPath>
</defs>
</svg>
