<svg width="126" height="30" viewBox="0 0 126 30" fill="none" xmlns="http://www.w3.org/2000/svg">
<path d="M17.7022 28.0663C15.8181 28.3595 13.9008 28.4474 11.9175 28.6816L5.8682 12.9786V29.3555C3.98411 29.5313 2.26525 29.7656 0.480225 30V0H5.50481L12.3802 17.0217V0H17.7022V28.0663ZM28.1147 10.9863C30.1643 10.9863 33.3046 10.8984 35.1887 10.8984V15.5858C32.8416 15.5858 30.0982 15.5858 28.1147 15.6737V22.6465C31.2221 22.4708 34.3293 22.2362 37.4694 22.1483V26.6597L22.8257 27.6854V0H37.4694V4.68751H28.1147V10.9863V10.9863ZM57.1375 4.68762H51.6503V26.2501C49.8653 26.2501 48.0803 26.2501 46.3617 26.3085V4.68762H40.8745V0H57.1377L57.1375 4.68762V4.68762ZM65.7319 10.6642H72.9712V15.3516H65.7319V25.9864H60.5418V0H75.3181V4.68751H65.7319V10.6642V10.6642ZM83.9125 21.8848C86.9207 21.9432 89.9616 22.1486 92.9037 22.2948V26.9238C88.1768 26.66 83.4498 26.3966 78.6237 26.3085V0H83.9125V21.8848ZM97.3661 27.2461C99.052 27.3341 100.837 27.422 102.556 27.5975V0H97.3661V27.2461V27.2461ZM125.728 0L119.018 14.2676L125.728 30C123.744 29.7656 121.761 29.4433 119.778 29.1503L115.977 20.4786L112.109 28.4474C110.192 28.1542 108.341 28.0663 106.424 27.8319L113.233 14.0917L107.085 0H112.77L116.241 7.88088L119.943 0H125.728V0Z" fill="#D81F26"/>
</svg>
