<svg width="146" height="35" viewBox="0 0 146 35" fill="none" xmlns="http://www.w3.org/2000/svg">
<path d="M50.9252 28.7749V14.2199H51.2177L63.1717 28.7749H66.9334V7.40064H62.7537V21.919H62.4611L50.5072 7.40064H46.7455V28.7749H50.9252ZM78.762 29.1049C84.2792 29.1049 87.6647 25.9519 87.6647 20.6725C87.6647 15.4297 84.2792 12.2401 78.762 12.2401C73.2866 12.2401 69.8592 15.4297 69.8592 20.6725C69.901 25.9519 73.2448 29.1049 78.762 29.1049ZM78.762 26.0252C75.8362 26.0252 74.1643 24.0821 74.1643 20.6725C74.1643 17.2995 75.8362 15.3198 78.762 15.3198C81.6878 15.3198 83.3596 17.2995 83.3596 20.6725C83.3596 24.0821 81.6878 26.0252 78.762 26.0252ZM91.4683 8.6105V12.6801H88.5425V15.6131H91.4683V24.4487C91.4683 27.6017 93.1401 28.8483 97.4034 28.8483C98.1976 28.8483 98.9917 28.7749 99.6187 28.6649V25.8053C99.1171 25.8419 98.7827 25.8786 98.1976 25.8786C96.4421 25.8786 95.648 25.182 95.648 23.5688V15.6131H99.6187V12.6801H95.648V8.6105H91.4683ZM102.127 28.7749H106.306V12.5701H102.127V28.7749ZM104.216 9.89369C105.596 9.89369 106.724 8.9038 106.724 7.69393C106.724 6.44741 105.596 5.45752 104.216 5.45752C102.837 5.45752 101.709 6.44741 101.709 7.69393C101.709 8.9038 102.837 9.89369 104.216 9.89369ZM117.759 29.1049C123.276 29.1049 126.661 25.9519 126.661 20.6725C126.661 15.4297 123.276 12.2401 117.759 12.2401C112.283 12.2401 108.856 15.4297 108.856 20.6725C108.856 25.9519 112.2 29.1049 117.759 29.1049ZM117.759 26.0252C114.833 26.0252 113.161 24.0821 113.161 20.6725C113.161 17.2995 114.833 15.3198 117.759 15.3198C120.643 15.3198 122.356 17.2995 122.356 20.6725C122.314 24.0821 120.643 26.0252 117.759 26.0252ZM129.127 28.7749H133.307V19.3526C133.307 16.9696 134.895 15.4664 137.361 15.4664C139.911 15.4664 141.081 16.7129 141.081 19.1693V28.7749H145.261V18.2894C145.261 14.4032 143.004 12.2401 138.908 12.2401C136.149 12.2401 134.31 13.34 133.432 15.1731H133.14V12.5701H129.086C129.127 12.5701 129.127 28.7749 129.127 28.7749Z" fill="black"/>
<path fill-rule="evenodd" clip-rule="evenodd" d="M6.66927 6.03259C7.88578 6.90239 8.32579 6.83372 10.6035 6.69638L32.0606 5.55191C32.5265 5.55191 32.1383 5.1399 31.983 5.09412L28.4111 2.82806C27.7381 2.37028 26.8064 1.82093 25.0722 1.95826L4.3139 3.30874C3.56329 3.37741 3.40799 3.72075 3.71859 3.97254L6.66927 6.03259ZM7.96343 10.4502V30.4098C7.96343 31.4857 8.55874 31.8748 9.93055 31.8061L33.5101 30.593C34.8819 30.5243 35.0372 29.7918 35.0372 28.922V9.09977C35.0372 8.22997 34.6489 7.74929 33.8207 7.81796L9.17993 9.09977C8.27402 9.16844 7.96343 9.58045 7.96343 10.4502ZM31.2324 11.5261C31.3877 12.1212 31.2324 12.7392 30.5594 12.8079L29.4206 13.0139V27.7547C28.437 28.2125 27.5311 28.4871 26.7546 28.4871C25.5381 28.4871 25.2275 28.1438 24.3216 27.1367L16.8931 16.8135V26.7933L19.2485 27.2511C19.2485 27.2511 19.2485 28.4642 17.359 28.4642L12.1306 28.7389C11.9753 28.4642 12.1306 27.8005 12.6483 27.6631L14.0201 27.3198V14.1354L12.1306 13.9981C11.9753 13.403 12.3636 12.5332 13.4248 12.4645L19.0414 12.1212L26.7805 22.5588V13.3343L24.8134 13.1283C24.6581 12.3959 25.2792 11.8465 26.0299 11.7778L31.2324 11.5261ZM2.57973 1.47759L24.1922 0.0813291C26.8322 -0.124676 27.5311 0.0126612 29.1876 1.08847L36.0725 5.36879C37.2114 6.10125 37.5996 6.30726 37.5996 7.10839V30.6159C37.5996 32.0808 37.0043 32.9506 34.8819 33.0879L9.80113 34.4384C8.19638 34.5071 7.44576 34.3011 6.6175 33.3626L1.51852 27.5258C0.612612 26.45 0.224365 25.6488 0.224365 24.7104V3.81231C0.224365 2.59917 0.84556 1.61492 2.57973 1.47759Z" fill="black"/>
</svg>
